<?xml version="1.0" encoding="utf-8"?>
<!-- Generator: Adobe Illustrator 23.0.1, SVG Export Plug-In . SVG Version: 6.00 Build 0)  -->
<svg version="1.1" id="Capa_1" xmlns="http://www.w3.org/2000/svg" xmlns:xlink="http://www.w3.org/1999/xlink" x="0px" y="0px"
	 viewBox="0 0 55.25 55.25" style="enable-background:new 0 0 55.25 55.25;" xml:space="preserve">
<style type="text/css">
	.st0{fill:#FFFFFF;}
</style>
<g>
	<path class="st0" d="M0.52,51.93l-0.5,2.08c-0.02,0.07-0.02,0.13-0.02,0.2c0,0.01,0,0.03,0,0.04c0,0.11,0.03,0.22,0.06,0.33
		c0.01,0.03,0.02,0.05,0.03,0.07c0.05,0.11,0.11,0.21,0.2,0.3c0.09,0.1,0.21,0.17,0.33,0.22S0.87,55.25,1,55.25
		c0.08,0,0.15-0.01,0.23-0.03l2.09-0.5L0.52,51.93z"/>
	<path class="st0" d="M52.62,2.63c-3.51-3.51-9.22-3.51-12.73,0L3.83,38.69c-0.02,0.02-0.03,0.04-0.04,0.06
		c-0.02,0.02-0.04,0.05-0.06,0.08c-0.05,0.07-0.09,0.15-0.12,0.24c-0.01,0.03-0.02,0.05-0.03,0.08c0,0.01-0.01,0.02-0.01,0.03
		L1.07,49.65l4.53,4.53l10.48-2.49c0.03-0.01,0.05-0.02,0.08-0.03c0.03-0.01,0.07-0.02,0.1-0.04c0.07-0.03,0.14-0.07,0.2-0.12
		c0.02-0.02,0.05-0.03,0.07-0.05c0.01-0.01,0.02-0.01,0.03-0.02l36.06-36.06C56.13,11.85,56.13,6.14,52.62,2.63z M17.16,47.99
		l0.35-3.18l22.38-22.38c0.39-0.39,0.39-1.02,0-1.41s-1.02-0.39-1.41,0L16.1,43.4l-4.77,0.53l0.53-4.77l22.38-22.38
		c0.39-0.39,0.39-1.02,0-1.41s-1.02-0.39-1.41,0L10.44,37.74l-3.18,0.35l27.68-27.68l9.9,9.9L17.16,47.99z M46.25,18.9L36.35,9
		l1.41-1.41l9.9,9.9L46.25,18.9z M49.08,16.07l-9.9-9.9l1.42-1.41l9.9,9.9L49.08,16.07z"/>
</g>
</svg>
