<?xml version="1.0" encoding="utf-8"?>
<!-- Generator: Adobe Illustrator 16.0.0, SVG Export Plug-In . SVG Version: 6.00 Build 0)  -->
<!DOCTYPE svg PUBLIC "-//W3C//DTD SVG 1.1//EN" "http://www.w3.org/Graphics/SVG/1.1/DTD/svg11.dtd">
<svg version="1.1" id="Layer_1" xmlns="http://www.w3.org/2000/svg" xmlns:xlink="http://www.w3.org/1999/xlink" x="0px" y="0px"
	 width="426.65px" height="512px" viewBox="0 0 426.65 512" enable-background="new 0 0 426.65 512" xml:space="preserve">
<g>
	<defs>
		<rect id="SVGID_1_" width="426.65" height="512"/>
	</defs>
	<clipPath id="SVGID_2_">
		<use xlink:href="#SVGID_1_"  overflow="visible"/>
	</clipPath>
	<path clip-path="url(#SVGID_2_)" fill="#FFFFFF" d="M425.138,431.851l-36.631-61.056c-16.917-28.181-25.854-60.459-25.854-93.312
		V224c0-67.52-45.056-124.628-106.667-143.04V42.667C255.985,19.137,236.85,0,213.318,0c-23.532,0-42.667,19.137-42.667,42.667
		v38.293C109.041,99.372,63.985,156.479,63.985,224v53.484c0,32.853-8.939,65.108-25.835,93.291L1.521,431.83
		c-1.984,3.307-2.027,7.403-0.128,10.752c1.899,3.349,5.419,5.419,9.26,5.419h405.333c3.84,0,7.381-2.069,9.28-5.397
		C427.163,439.275,427.101,435.136,425.138,431.851"/>
	<path clip-path="url(#SVGID_2_)" fill="#FFFFFF" d="M146.14,469.333C158.172,494.464,183.644,512,213.317,512
		c29.675,0,55.147-17.536,67.18-42.667H146.14z"/>
</g>
</svg>
