<?xml version="1.0" encoding="utf-8"?>
<!-- Generator: Adobe Illustrator 16.0.0, SVG Export Plug-In . SVG Version: 6.00 Build 0)  -->
<!DOCTYPE svg PUBLIC "-//W3C//DTD SVG 1.1//EN" "http://www.w3.org/Graphics/SVG/1.1/DTD/svg11.dtd">
<svg version="1.1" id="Layer_1" xmlns="http://www.w3.org/2000/svg" xmlns:xlink="http://www.w3.org/1999/xlink" x="0px" y="0px"
	 width="512px" height="511.755px" viewBox="0 0 512 511.755" enable-background="new 0 0 512 511.755" xml:space="preserve">
<g>
	<defs>
		<rect id="SVGID_1_" width="512" height="511.755"/>
	</defs>
	<clipPath id="SVGID_2_">
		<use xlink:href="#SVGID_1_"  overflow="visible"/>
	</clipPath>
	<path clip-path="url(#SVGID_2_)" fill="#FFFFFF" d="M488.514,465.219H23.268C10.414,465.219,0,475.633,0,488.497
		c0,12.844,10.414,23.258,23.268,23.258h465.235c12.855,0,23.27-10.414,23.27-23.258
		C511.761,475.633,501.347,465.219,488.514,465.219"/>
	<path clip-path="url(#SVGID_2_)" fill="#FFFFFF" d="M52.343,404.727c-12.854,0-23.268,10.414-23.268,23.27
		c0,12.854,10.414,23.278,23.268,23.278h407.086c12.854,0,23.27-10.425,23.27-23.278c0-12.855-10.415-23.27-23.27-23.27h-5.807
		v-209.37h5.807c6.438,0,11.623-5.207,11.623-11.624c0-6.416-5.207-11.623-11.623-11.623H52.343
		c-6.427,0-11.623,5.207-11.623,11.623c0,6.417,5.207,11.624,11.623,11.624h5.817v209.36h-5.817V404.727z M407.086,404.717h-69.783
		v-209.36h69.783V404.717z M290.767,404.717h-69.783v-209.36h69.783V404.717z M104.675,195.357h69.783v209.36h-69.783V195.357z"/>
	<path clip-path="url(#SVGID_2_)" fill="#FFFFFF" d="M23.269,151.194h465.235h0.228c12.866,0,23.269-10.414,23.269-23.268
		c0-10.218-6.578-18.878-15.719-22.016L265.45,2.042c-6.066-2.723-13.007-2.723-19.084,0L13.727,106.717
		c-10.011,4.51-15.513,15.382-13.203,26.101C2.821,143.537,12.299,151.194,23.269,151.194"/>
</g>
</svg>
