<?xml version="1.0" encoding="utf-8"?>
<!-- Generator: Adobe Illustrator 16.0.0, SVG Export Plug-In . SVG Version: 6.00 Build 0)  -->
<!DOCTYPE svg PUBLIC "-//W3C//DTD SVG 1.1//EN" "http://www.w3.org/Graphics/SVG/1.1/DTD/svg11.dtd">
<svg version="1.1" id="Layer_1" xmlns="http://www.w3.org/2000/svg" xmlns:xlink="http://www.w3.org/1999/xlink" x="0px" y="0px"
	 width="500.649px" height="512.001px" viewBox="0 0 500.649 512.001" enable-background="new 0 0 500.649 512.001"
	 xml:space="preserve">
<g>
	<defs>
		<rect id="SVGID_1_" width="500.649" height="512.001"/>
	</defs>
	<clipPath id="SVGID_2_">
		<use xlink:href="#SVGID_1_"  overflow="visible"/>
	</clipPath>
	<path clip-path="url(#SVGID_2_)" fill="#FFFFFF" d="M180.868,282.468c0-6.414-5.203-11.609-11.622-11.609h-40.553
		c-6.412,0-11.616,5.195-11.616,11.609v40.549c0,6.422,5.204,11.62,11.616,11.62h40.553c6.419,0,11.622-5.198,11.622-11.62V282.468z
		"/>
	<path clip-path="url(#SVGID_2_)" fill="#FFFFFF" d="M282.217,282.468c0-6.414-5.202-11.609-11.608-11.609h-40.56
		c-6.412,0-11.615,5.195-11.615,11.609v40.549c0,6.422,5.203,11.62,11.615,11.62h40.56c6.406,0,11.608-5.198,11.608-11.62V282.468z"
		/>
	<path clip-path="url(#SVGID_2_)" fill="#FFFFFF" d="M383.571,282.468c0-6.414-5.202-11.609-11.613-11.609h-40.556
		c-6.419,0-11.621,5.195-11.621,11.609v40.549c0,6.422,5.202,11.62,11.621,11.62h40.556c6.411,0,11.613-5.198,11.613-11.62V282.468z
		"/>
	<path clip-path="url(#SVGID_2_)" fill="#FFFFFF" d="M180.868,383.828c0-6.425-5.203-11.616-11.622-11.616h-40.553
		c-6.412,0-11.616,5.191-11.616,11.616v40.541c0,6.418,5.204,11.615,11.616,11.615h40.553c6.419,0,11.622-5.198,11.622-11.615
		V383.828z"/>
	<path clip-path="url(#SVGID_2_)" fill="#FFFFFF" d="M282.217,383.828c0-6.425-5.202-11.616-11.608-11.616h-40.56
		c-6.412,0-11.615,5.191-11.615,11.616v40.541c0,6.418,5.203,11.615,11.615,11.615h40.56c6.406,0,11.608-5.198,11.608-11.615
		V383.828z"/>
	<path clip-path="url(#SVGID_2_)" fill="#FFFFFF" d="M383.571,383.828c0-6.425-5.202-11.616-11.608-11.616h-40.561
		c-6.419,0-11.621,5.191-11.621,11.616v40.541c0,6.418,5.202,11.615,11.621,11.615h40.561c6.406,0,11.608-5.198,11.608-11.615
		V383.828z"/>
	<path clip-path="url(#SVGID_2_)" fill="#FFFFFF" d="M456.086,57.009v61.935c0,27.994-22.709,50.553-50.699,50.553h-31.981
		c-27.992,0-51.003-22.559-51.003-50.553V56.787H178.248v62.157c0,27.994-23.01,50.553-50.998,50.553H95.261
		c-27.988,0-50.697-22.559-50.697-50.553V57.009C20.102,57.746,0,77.988,0,102.868v362.968c0,25.348,20.545,46.165,45.893,46.165
		h408.863c25.311,0,45.893-20.86,45.893-46.165V102.868C500.648,77.988,480.549,57.746,456.086,57.009 M441.231,443.233
		c0,10.954-8.882,19.841-19.84,19.841H78.384c-10.958,0-19.84-8.887-19.84-19.841V255.747c0-10.959,8.881-19.846,19.84-19.846
		h343.007c10.958,0,19.84,8.887,19.84,19.846L441.231,443.233z"/>
	<path clip-path="url(#SVGID_2_)" fill="#FFFFFF" d="M95.149,136.293h31.636c9.602,0,17.387-7.774,17.387-17.376V17.382
		C144.172,7.779,136.387,0,126.785,0H95.149c-9.604,0-17.388,7.779-17.388,17.382v101.535
		C77.761,128.52,85.545,136.293,95.149,136.293"/>
	<path clip-path="url(#SVGID_2_)" fill="#FFFFFF" d="M372.997,136.293h31.637c9.595,0,17.382-7.774,17.382-17.376V17.382
		C422.017,7.779,414.229,0,404.634,0h-31.637c-9.602,0-17.387,7.779-17.387,17.382v101.535
		C355.61,128.52,363.396,136.293,372.997,136.293"/>
</g>
</svg>
