<?xml version="1.0" encoding="utf-8"?>
<!-- Generator: Adobe Illustrator 23.0.1, SVG Export Plug-In . SVG Version: 6.00 Build 0)  -->
<svg version="1.1" id="Layer_1" xmlns="http://www.w3.org/2000/svg" xmlns:xlink="http://www.w3.org/1999/xlink" x="0px" y="0px"
	 viewBox="0 0 512 512" style="enable-background:new 0 0 512 512;" xml:space="preserve">
<style type="text/css">
	.st0{fill:#FFFFFF;}
</style>
<path class="st0" d="M150,0h92v150h-92V0z"/>
<path class="st0" d="M332,0h30v150h-30V0z"/>
<path class="st0" d="M150,302h212v30H150V302z"/>
<path class="st0" d="M272,0h30v150h-30V0z"/>
<path class="st0" d="M396.4,13.2c-1.4-1.4-2.9-2.5-4.4-3.6V165c0,8.3-6.7,15-15,15H135c-8.3,0-15-6.7-15-15V0H45C20.2,0,0,20.2,0,45
	v422c0,24.8,20.2,45,45,45h75V287c0-8.3,6.7-15,15-15h242c8.3,0,15,6.7,15,15v225h75c24.8,0,45-20.2,45-45V147.4
	c0-12-4.7-23.3-13.2-31.8L396.4,13.2z M75,452c-8.3,0-15-6.7-15-15s6.7-15,15-15s15,6.7,15,15S83.3,452,75,452z M75,90
	c-8.3,0-15-6.7-15-15s6.7-15,15-15s15,6.7,15,15S83.3,90,75,90z M437,452c-8.3,0-15-6.7-15-15s6.7-15,15-15s15,6.7,15,15
	S445.3,452,437,452z"/>
<path class="st0" d="M150,512h212V362H150V512z M195,392h122c8.3,0,15,6.7,15,15s-6.7,15-15,15H195c-8.3,0-15-6.7-15-15
	S186.7,392,195,392z"/>
</svg>
