<?xml version="1.0" encoding="utf-8"?>
<!-- Generator: Adobe Illustrator 23.0.1, SVG Export Plug-In . SVG Version: 6.00 Build 0)  -->
<svg version="1.1" id="Layer_1" xmlns="http://www.w3.org/2000/svg" xmlns:xlink="http://www.w3.org/1999/xlink" x="0px" y="0px"
	 viewBox="0 0 512 476.8" style="enable-background:new 0 0 512 476.8;" xml:space="preserve">
<style type="text/css">
	.st0{fill:#FFFFFF;}
</style>
<g>
	<g>
		<g>
			<path class="st0" d="M491.5,210.8c-1-2.4-2.4-4.6-4.3-6.4l-59-59c-7.7-7.7-20.1-7.7-27.8,0c-7.7,7.7-7.7,20.1,0,27.8l25.4,25.4
				H316c-10.9,0-19.7,8.8-19.7,19.7c0,10.9,8.8,19.7,19.7,19.7h109.9l-25.4,25.4c-7.7,7.7-7.7,20.1,0,27.8c3.8,3.9,8.9,5.8,13.9,5.8
				s10.1-1.9,13.9-5.8l59-59c1.8-1.8,3.3-4,4.3-6.4C493.5,221,493.5,215.6,491.5,210.8z"/>
			<path class="st0" d="M355.3,277.3c-10.9,0-19.7,8.8-19.7,19.7v98.3H257V80.7c0-8.7-5.7-16.3-14-18.8l-68.3-20.5h161v98.3
				c0,10.9,8.8,19.7,19.7,19.7c10.9,0,19.7-8.8,19.7-19.7v-118C375,10.8,366.2,2,355.3,2H40.7c-0.7,0-1.3,0.3-2,0.4
				c-0.9,0.1-1.8,0.3-2.7,0.5c-2.1,0.5-3.9,1.3-5.7,2.4c-0.4,0.3-1,0.3-1.4,0.6c-0.2,0.1-0.2,0.3-0.4,0.5c-2.1,1.7-3.9,3.8-5.2,6.2
				c-0.3,0.5-0.3,1.1-0.6,1.7c-0.6,1.5-1.3,3-1.6,4.6c-0.1,0.6,0.1,1.1,0.1,1.7c0,0.4-0.3,0.7-0.3,1.1V415c0,9.4,6.6,17.4,15.8,19.3
				l196.7,39.3c1.3,0.3,2.6,0.4,3.9,0.4c4.5,0,8.9-1.6,12.5-4.5c4.5-3.7,7.2-9.3,7.2-15.2v-19.7h98.3c10.9,0,19.7-8.8,19.7-19.7V297
				C375,286.1,366.2,277.3,355.3,277.3z"/>
		</g>
	</g>
</g>
</svg>
